Genre:Drama
Language:English
IMDb:http://www.imdb.com/title/tt1221208/
Source:DvDScr Thx


Format : Matroska
File size : 1.17 GiB
Duration : 1h 41mn
Overall bit rate : 1 645 Kbps


Video
Format settings, CABAC : Yes
Format settings, ReFrames : 4 frames
Codec ID : V_MPEG4/ISO/AVC
Duration : 1h 41mn
Bit rate : 1 200 Kbps
Width : 720 pixels
Height : 304 pixels
Display aspect ratio : 2.35:1
Frame rate mode : Variable
Frame rate : 23.976 fps
Color space : YUV
Chroma subsampling : 4:2:0
Bit depth : 8 bits
Scan type : Progressive
Bits/(Pixel*Frame) : 0.229
Stream size : 845 MiB (71%)
Writing library : x264


Audio
ID : 2
Format : AC-3
Format/Info : Audio Coding 3
Mode extension : CM (complete main)
Codec ID : A_AC3
Duration : 1h 41mn
Bit rate mode : Constant
Bit rate : 448 Kbps
Channel(s) : 6 channels
Channel positions : Front: L C R, Side: L R, LFE
Sampling rate : 48.0 KHz
Bit depth : 16 bits
Video delay : -1mn 5s
Stream size : 325 MiB (27%)
Language : English



Plot:
A drama centered on a young woman with multiple personality disorder who struggles to remain her true self and not give in to her racist alter-personality

 
http://shareimage.org/images/j5i8v7v5bwku08g6c9.png
 
http://shareimage.org/images/ad5tqcr88fhuetgqe70.png
 
http://shareimage.org/images/00464azczp5y87ruxl9.png
 
http://shareimage.org/images/i7n8eqz9qskifmisl5rt.png

Greets:

INK,CRYS,IMAGINE,LKRG,FXG,3Li,FLAWL3SS,TA,iLLUSiON,ViSiON,LU,TheFalcon007,PrisM,Noir,WBZ,LAP,Rx,Kingdom,SAFCuk009+Fabreezy,HDLiTE,TWiZTED,ExtraTorrentRG.ELEKTRI4KA,MAGNAT,CM8
And to all the other p2p grps past and present




Make sure its a real Feel-Free release @ extratorrent